<?xml version="1.0" encoding="UTF-8"?>
<svg width="205px" height="44px" viewBox="0 0 205 44" version="1.1" xmlns="http://www.w3.org/2000/svg" xmlns:xlink="http://www.w3.org/1999/xlink">
    <!-- Generator: Sketch 55.1 (78136) - https://sketchapp.com -->
    <title>Logo</title>
    <desc>Created with Sketch.</desc>
    <g id="iOS-Store" stroke="none" stroke-width="1" fill="none" fill-rule="evenodd">
        <g id="Desktop-Copy-5" transform="translate(-150.000000, -150.000000)" fill="#FFBFDF">
            <g id="Logo" transform="translate(150.000000, 150.000000)">
                <path d="M13.0095964,38.7087475 C17.4592608,38.7087475 21.0793985,35.0084197 21.0793985,30.4601902 C21.0793985,25.9123213 17.4592608,22.2119934 13.0095964,22.2119934 C8.55993201,22.2119934 4.93979432,25.9123213 4.93979432,30.4601902 C4.93979432,35.0084197 8.55993201,38.7087475 13.0095964,38.7087475 Z M21.1700783,20.1144197 L21.1700783,17.9901574 L26.1098373,17.9901574 L26.1098373,42.9439279 L21.1700783,42.9439279 L21.1700783,40.8059607 C18.9366015,42.6503541 16.0976515,43.7579279 13.0095964,43.7579279 C5.83600775,43.7579279 3.52839925e-05,37.792682 3.52839925e-05,30.4601902 C3.52839925e-05,23.128059 5.83600775,17.1628131 13.0095964,17.1628131 C16.0976515,17.1628131 18.9366015,18.2703869 21.1700783,20.1144197 Z M74.7565843,38.7087475 C79.2062487,38.7087475 82.8260336,35.0084197 82.8260336,30.4601902 C82.8260336,25.9123213 79.2062487,22.2119934 74.7565843,22.2119934 C70.30692,22.2119934 66.6867823,25.9123213 66.6867823,30.4601902 C66.6867823,35.0084197 70.30692,38.7087475 74.7565843,38.7087475 Z M74.7565843,17.1628131 C81.9298201,17.1628131 87.7657926,23.128059 87.7657926,30.4601902 C87.7657926,37.792682 81.9298201,43.7579279 74.7565843,43.7579279 C67.5829957,43.7579279 61.7470232,37.792682 61.7470232,30.4601902 C61.7470232,23.128059 67.5829957,17.1628131 74.7565843,17.1628131 Z M105.670055,22.2119213 C101.220391,22.2119213 97.600253,25.9122492 97.600253,30.4604787 C97.600253,35.0083475 101.220391,38.7086754 105.670055,38.7086754 C107.825201,38.7086754 109.851914,37.8506754 111.37583,36.2930033 L114.868945,39.8631344 C112.411768,42.374741 109.145176,43.7578557 105.670055,43.7578557 C98.4964664,43.7578557 92.660494,37.7926098 92.660494,30.4604787 C92.660494,23.1279869 98.4964664,17.162741 105.670055,17.162741 C109.145176,17.162741 112.411768,18.5458557 114.868945,21.0574623 L111.37583,24.6275934 C109.851914,23.0699213 107.825201,22.2119213 105.670055,22.2119213 Z M130.137281,38.751377 C134.586946,38.751377 138.207083,35.0510492 138.207083,30.5028197 C138.207083,25.9549508 134.586946,22.254623 130.137281,22.254623 C125.687617,22.254623 122.067479,25.9549508 122.067479,30.5028197 C122.067479,35.0510492 125.687617,38.751377 130.137281,38.751377 Z M138.297763,20.1570492 L138.297763,18.0327869 L143.237522,18.0327869 L143.237522,42.9865574 L138.297763,42.9865574 L138.297763,40.8485902 C136.064287,42.6929836 133.225336,43.8005574 130.137281,43.8005574 C122.963693,43.8005574 117.12772,37.8353115 117.12772,30.5028197 C117.12772,23.1706885 122.963693,17.2054426 130.137281,17.2054426 C133.225336,17.2054426 136.064287,18.3130164 138.297763,20.1570492 Z M160.996662,38.751377 C165.446326,38.751377 169.066464,35.0510492 169.066464,30.5028197 C169.066464,25.9549508 165.446326,22.254623 160.996662,22.254623 C156.54735,22.254623 152.927213,25.9549508 152.927213,30.5028197 C152.927213,35.0510492 156.54735,38.751377 160.996662,38.751377 Z M169.157144,20.1570492 L169.157144,0 L174.096903,0 L174.096903,42.9865574 L169.157144,42.9865574 L169.157144,40.8485902 C166.923667,42.6929836 164.08507,43.8005574 160.996662,43.8005574 C153.823426,43.8005574 147.987454,37.8353115 147.987454,30.5028197 C147.987454,23.1706885 153.823426,17.2054426 160.996662,17.2054426 C164.08507,17.2054426 166.923667,18.3130164 169.157144,20.1570492 Z M191.960765,38.751377 C196.410077,38.751377 200.030214,35.0510492 200.030214,30.5028197 C200.030214,25.9549508 196.410077,22.254623 191.960765,22.254623 C187.511101,22.254623 183.890963,25.9549508 183.890963,30.5028197 C183.890963,35.0510492 187.511101,38.751377 191.960765,38.751377 Z M191.960765,17.2054426 C199.134001,17.2054426 204.969973,23.1706885 204.969973,30.5028197 C204.969973,37.8353115 199.134001,43.8005574 191.960765,43.8005574 C184.787176,43.8005574 178.951204,37.8353115 178.951204,30.5028197 C178.951204,23.1706885 184.787176,17.2054426 191.960765,17.2054426 Z M43.8703528,38.7087475 C48.3200172,38.7087475 51.9401549,35.0084197 51.9401549,30.4601902 L56.8799139,30.4601902 C56.8799139,37.792682 51.0439415,43.7579279 43.8703528,43.7579279 C36.6967642,43.7579279 30.8607917,37.792682 30.8607917,30.4601902 L35.8005508,30.4601902 C35.8005508,35.0084197 39.4206885,38.7087475 43.8703528,38.7087475 Z" id="Shape"></path>
            </g>
        </g>
    </g>
</svg>